<svg id="Layer_1" data-name="Layer 1" xmlns="http://www.w3.org/2000/svg" viewBox="0 0 40 26"><defs><style>.cls-1{fill:#6d6e70;}</style></defs><path class="cls-1" d="M9.71,2.45l.62,4.17h0L11,2.45H12.1l.67,4.17h0l.63-4.17h1.08l-1,5.64H12.2L11.57,4h0l-.63,4.09H9.65l-1-5.64Z"/><path class="cls-1" d="M13.41,15.83l-.63-4.17h0l-.67,4.17H11l-.66-4.17h0l-.62,4.17H8.62l1-5.64h1.27l.63,4.09h0l.63-4.09h1.27l1,5.64Z"/><path class="cls-1" d="M14.89,4.09a2.75,2.75,0,0,1,.26-.93,1.46,1.46,0,0,1,.58-.6,2,2,0,0,1,1-.22,2,2,0,0,1,1,.22,1.4,1.4,0,0,1,.58.6,2.75,2.75,0,0,1,.26.93,10.68,10.68,0,0,1,.06,1.18,10.56,10.56,0,0,1-.06,1.18,2.75,2.75,0,0,1-.26.93,1.43,1.43,0,0,1-.58.59,2.1,2.1,0,0,1-1,.2,2.15,2.15,0,0,1-1-.2,1.5,1.5,0,0,1-.58-.59,2.75,2.75,0,0,1-.26-.93,10.56,10.56,0,0,1-.06-1.18A10.68,10.68,0,0,1,14.89,4.09ZM16,6.24a2.48,2.48,0,0,0,.11.64.67.67,0,0,0,.24.37.68.68,0,0,0,.4.11.71.71,0,0,0,.41-.11.79.79,0,0,0,.24-.37,3,3,0,0,0,.11-.64c0-.27,0-.59,0-1s0-.7,0-1a3.1,3.1,0,0,0-.11-.65.79.79,0,0,0-.24-.37.64.64,0,0,0-.41-.11.61.61,0,0,0-.4.11.67.67,0,0,0-.24.37,2.56,2.56,0,0,0-.11.65q0,.39,0,1C16,5.65,16,6,16,6.24Z"/><path class="cls-1" d="M21.44,2.45a1.61,1.61,0,0,1,1.11.36,1.41,1.41,0,0,1,.39,1.09,1.73,1.73,0,0,1-.23.93,1.06,1.06,0,0,1-.71.46v0a1,1,0,0,1,.62.27,1.15,1.15,0,0,1,.25.69c0,.11,0,.22,0,.34s0,.27,0,.42,0,.53.05.69a.46.46,0,0,0,.2.32v.05H21.93a.64.64,0,0,1-.11-.27,1.73,1.73,0,0,1,0-.32l0-1.09a.89.89,0,0,0-.17-.52.63.63,0,0,0-.5-.19h-.61V8.09H19.34V2.45ZM21,4.91a.91.91,0,0,0,.63-.19.82.82,0,0,0,.22-.65A.69.69,0,0,0,21,3.29h-.53V4.91Z"/><path class="cls-1" d="M23.73,2.45h1.14V7.16h2v.93H23.73Z"/><path class="cls-1" d="M29.3,2.45a2,2,0,0,1,1,.19,1.37,1.37,0,0,1,.56.56,2.18,2.18,0,0,1,.27.86,7.78,7.78,0,0,1,.07,1.13,8.15,8.15,0,0,1-.09,1.29,2.32,2.32,0,0,1-.31.9,1.26,1.26,0,0,1-.59.53,2.16,2.16,0,0,1-.94.18H27.44V2.45Zm-.22,4.8a1,1,0,0,0,.48-.1.71.71,0,0,0,.29-.34A2,2,0,0,0,30,6.18a8.5,8.5,0,0,0,0-1q0-.48,0-.84a2.23,2.23,0,0,0-.13-.61.77.77,0,0,0-.3-.36.94.94,0,0,0-.51-.12h-.48v4Z"/><path class="cls-1" d="M17.79,10.24l1.5,5.63H18.1l-.26-1.19h-1.5l-.26,1.19H14.9l1.49-5.63Zm-.15,3.51-.54-2.53h0l-.54,2.53Z"/><path class="cls-1" d="M21.93,10.24a1.57,1.57,0,0,1,1.1.36,1.38,1.38,0,0,1,.4,1.09,1.73,1.73,0,0,1-.23.93,1.06,1.06,0,0,1-.71.46h0a1.09,1.09,0,0,1,.62.28,1.16,1.16,0,0,1,.25.69c0,.1,0,.22,0,.34s0,.26,0,.42,0,.53,0,.68a.47.47,0,0,0,.21.33v0H22.42a.5.5,0,0,1-.11-.27,1.66,1.66,0,0,1,0-.32l0-1.08a.89.89,0,0,0-.16-.52.6.6,0,0,0-.51-.19H21v2.38H19.83V10.24Zm-.49,2.46a.93.93,0,0,0,.63-.19.82.82,0,0,0,.22-.65.7.7,0,0,0-.79-.79H21V12.7Z"/><path class="cls-1" d="M25.55,12.49h0L27,10.24h1.23l-1.53,2.41,1.7,3.22H27.13L26,13.56l-.42.64v1.67H24.42V10.24h1.13Z"/><path class="cls-1" d="M11.05,18a1.59,1.59,0,0,1,1.11.36,1.43,1.43,0,0,1,.39,1.1,1.63,1.63,0,0,1-.23.92,1.07,1.07,0,0,1-.71.47h0a1,1,0,0,1,.63.28,1.16,1.16,0,0,1,.24.68c0,.11,0,.22,0,.35s0,.26,0,.41,0,.53.05.69a.42.42,0,0,0,.2.32v.05H11.54a.64.64,0,0,1-.11-.27l0-.32,0-1.08a.87.87,0,0,0-.17-.52.59.59,0,0,0-.5-.19h-.61v2.38H9V18Zm-.49,2.47a.94.94,0,0,0,.64-.2.85.85,0,0,0,.22-.65.7.7,0,0,0-.79-.78h-.54v1.63Z"/><path class="cls-1" d="M16.65,19h-2v1.33h1.89v.93H14.64v1.52h2.09v.93H13.5V18h3.15Z"/><path class="cls-1" d="M20.6,18V19h-2v1.33h1.9v.93h-1.9v2.45H17.45V18Z"/><path class="cls-1" d="M21.32,18h1.14v5.64H21.32Z"/><path class="cls-1" d="M26.14,21.88h0V18h1v5.64H25.91l-1.39-3.95h0v3.95h-1V18h1.31Z"/><path class="cls-1" d="M31.3,19h-2v1.33h1.89v.93H29.29v1.52h2.09v.93H28.15V18H31.3Z"/></svg>